<?xml version="1.0" standalone="no"?>
<!DOCTYPE svg PUBLIC "-//W3C//DTD SVG 20010904//EN"
 "http://www.w3.org/TR/2001/REC-SVG-20010904/DTD/svg10.dtd">
<svg version="1.0" xmlns="http://www.w3.org/2000/svg"
 width="562.000000pt" height="562.000000pt" viewBox="0 0 562.000000 562.000000"
 preserveAspectRatio="xMidYMid meet">

<g transform="translate(0.000000,562.000000) scale(0.100000,-0.100000)"
fill="#000000" stroke="none">
<path d="M2540 5609 c-1349 -136 -2404 -1196 -2530 -2544 -67 -716 148 -1431
604 -2010 94 -119 318 -344 436 -438 640 -509 1463 -717 2268 -573 296 53 641
181 899 332 873 511 1402 1428 1403 2429 0 758 -288 1455 -824 1991 -471 471
-1070 753 -1731 814 -128 12 -402 11 -525 -1z m-1247 -1051 c9 -7 177 -393
372 -857 196 -465 359 -851 364 -858 5 -10 24 11 63 69 185 278 711 1034 724
1041 8 5 25 6 37 3 15 -4 134 -174 387 -551 201 -300 369 -546 374 -546 5 0
166 377 358 838 321 773 367 873 398 873 4 0 17 -8 29 -17 l21 -18 0 -1459 c0
-1059 -3 -1463 -11 -1473 -6 -7 -24 -13 -40 -13 -25 0 -43 22 -185 228 -86
125 -159 233 -161 240 -6 15 -583 18 -583 2 0 -9 -99 -286 -219 -615 -26 -71
-110 -302 -186 -513 -100 -278 -144 -386 -158 -394 -26 -13 -64 4 -76 34 -5
13 -38 97 -74 188 -59 151 -183 469 -342 875 -34 88 -86 222 -116 298 l-53
137 -291 0 -290 0 -170 -243 c-179 -254 -194 -269 -236 -231 -19 17 -19 51
-19 1476 0 1445 0 1458 20 1478 23 23 39 25 63 8z"/>
<path d="M1318 3023 c-3 -664 -4 -1209 -2 -1211 2 -4 183 251 467 656 l178
254 -182 431 c-100 238 -205 488 -234 557 -29 69 -90 213 -135 320 -45 107
-83 196 -85 198 -1 1 -5 -541 -7 -1205z"/>
<path d="M4304 4210 c-7 -14 -85 -200 -174 -415 -89 -214 -185 -444 -212 -510
-28 -66 -60 -145 -73 -175 -12 -30 -52 -127 -89 -214 l-67 -159 55 -81 c30
-45 122 -180 205 -301 82 -121 198 -292 258 -379 l108 -160 3 608 c4 1077 -2
1814 -14 1786z"/>
<path d="M2715 3628 c-65 -95 -153 -222 -195 -283 -43 -60 -159 -229 -258
-373 l-181 -264 17 -41 c9 -23 55 -141 102 -262 l86 -220 543 0 544 0 97 268
98 269 -296 441 c-163 243 -325 486 -360 540 -36 53 -68 97 -71 97 -4 0 -61
-78 -126 -172z"/>
<path d="M3637 2597 c-35 -95 -147 -406 -147 -411 0 -3 99 -6 220 -6 121 0
220 3 220 6 0 6 -238 358 -271 401 -11 16 -18 19 -22 10z"/>
<path d="M1862 2395 c-78 -112 -142 -206 -142 -209 0 -3 102 -6 226 -6 177 0
225 3 221 13 -3 6 -37 94 -76 195 -38 100 -74 189 -78 197 -6 9 -50 -47 -151
-190z"/>
<path d="M2350 2023 c10 -27 100 -257 200 -513 267 -684 266 -682 281 -722 7
-21 16 -38 19 -38 3 0 49 120 102 268 54 147 160 442 238 655 77 213 140 390
140 392 0 3 -225 5 -499 5 l-499 0 18 -47z"/>
</g>
</svg>
